<?xml version="1.0" encoding="utf-8"?>
<!-- Generator: Adobe Illustrator 24.2.0, SVG Export Plug-In . SVG Version: 6.00 Build 0)  -->
<svg version="1.1" id="レイヤー_1" xmlns="http://www.w3.org/2000/svg" xmlns:xlink="http://www.w3.org/1999/xlink" x="0px"
	 y="0px" viewBox="0 0 449.65 144.09" style="enable-background:new 0 0 449.65 144.09;" xml:space="preserve">
<style type="text/css">
	.st0{fill:#040000;}
	.st1{fill:none;stroke:#EFEA3A;stroke-miterlimit:10;}
	.st2{fill:none;stroke:#898989;stroke-miterlimit:10;}
	.st3{font-family:'KozGoPr6N-Regular-83pv-RKSJ-H';}
	.st4{font-size:8.3499px;}
</style>
<rect class="st0" width="449.65" height="144.09"/>
<path class="st1" d="M54.88,93.57h-30.6c-1.97,0-3.57-1.6-3.57-3.57v-30.6c0-1.97,1.6-3.57,3.57-3.57h30.6
	c1.97,0,3.57,1.6,3.57,3.57v30.6C58.46,91.96,56.86,93.57,54.88,93.57z"/>
<path class="st1" d="M98.72,93.57h-30.6c-1.97,0-3.57-1.6-3.57-3.57v-30.6c0-1.97,1.6-3.57,3.57-3.57h30.6
	c1.97,0,3.57,1.6,3.57,3.57v30.6C102.29,91.96,100.69,93.57,98.72,93.57z"/>
<path class="st1" d="M142.63,93.57h-30.6c-1.97,0-3.57-1.6-3.57-3.57v-30.6c0-1.97,1.6-3.57,3.57-3.57h30.6
	c1.97,0,3.57,1.6,3.57,3.57v30.6C146.2,91.96,144.6,93.57,142.63,93.57z"/>
<path class="st1" d="M77.13,135.29h-30.6c-1.97,0-3.57-1.6-3.57-3.57v-30.6c0-1.97,1.6-3.57,3.57-3.57h30.6
	c1.97,0,3.57,1.6,3.57,3.57v30.6C80.7,133.69,79.1,135.29,77.13,135.29z"/>
<path class="st1" d="M87.7,50.79H57.1c-1.97,0-3.57-1.6-3.57-3.57v-30.6c0-1.97,1.6-3.57,3.57-3.57h30.6c1.97,0,3.57,1.6,3.57,3.57
	v30.6C91.27,49.19,89.67,50.79,87.7,50.79z"/>
<path class="st1" d="M130.76,50.79h-30.6c-1.97,0-3.57-1.6-3.57-3.57v-30.6c0-1.97,1.6-3.57,3.57-3.57h30.6
	c1.97,0,3.57,1.6,3.57,3.57v30.6C134.33,49.19,132.73,50.79,130.76,50.79z"/>
<path class="st1" d="M175.28,50.79h-30.6c-1.97,0-3.57-1.6-3.57-3.57v-30.6c0-1.97,1.6-3.57,3.57-3.57h30.6
	c1.97,0,3.57,1.6,3.57,3.57v30.6C178.85,49.19,177.25,50.79,175.28,50.79z"/>
<path class="st1" d="M316.63,93.57h-30.6c-1.97,0-3.57-1.6-3.57-3.57v-30.6c0-1.97,1.6-3.57,3.57-3.57h30.6
	c1.97,0,3.57,1.6,3.57,3.57v30.6C320.2,91.96,318.6,93.57,316.63,93.57z"/>
<path class="st1" d="M360.02,93.57h-30.6c-1.97,0-3.57-1.6-3.57-3.57v-30.6c0-1.97,1.6-3.57,3.57-3.57h30.6
	c1.97,0,3.57,1.6,3.57,3.57v30.6C363.6,91.96,362,93.57,360.02,93.57z"/>
<path class="st2" d="M185.76,93.57h-30.6c-1.97,0-3.57-1.6-3.57-3.57v-30.6c0-1.97,1.6-3.57,3.57-3.57h30.6
	c1.97,0,3.57,1.6,3.57,3.57v30.6C189.33,91.96,187.73,93.57,185.76,93.57z"/>
<path class="st2" d="M229.59,93.57h-30.6c-1.97,0-3.57-1.6-3.57-3.57v-30.6c0-1.97,1.6-3.57,3.57-3.57h30.6
	c1.97,0,3.57,1.6,3.57,3.57v30.6C233.17,91.96,231.57,93.57,229.59,93.57z"/>
<path class="st2" d="M273.5,93.57h-30.6c-1.97,0-3.57-1.6-3.57-3.57v-30.6c0-1.97,1.6-3.57,3.57-3.57h30.6
	c1.97,0,3.57,1.6,3.57,3.57v30.6C277.07,91.96,275.47,93.57,273.5,93.57z"/>
<path class="st2" d="M218.52,50.79h-30.6c-1.97,0-3.57-1.6-3.57-3.57v-30.6c0-1.97,1.6-3.57,3.57-3.57h30.6
	c1.97,0,3.57,1.6,3.57,3.57v30.6C222.1,49.19,220.5,50.79,218.52,50.79z"/>
<path class="st2" d="M262.36,50.79h-30.6c-1.97,0-3.57-1.6-3.57-3.57v-30.6c0-1.97,1.6-3.57,3.57-3.57h30.6
	c1.97,0,3.57,1.6,3.57,3.57v30.6C265.94,49.19,264.34,50.79,262.36,50.79z"/>
<path class="st2" d="M306.27,50.79h-30.6c-1.97,0-3.57-1.6-3.57-3.57v-30.6c0-1.97,1.6-3.57,3.57-3.57h30.6
	c1.97,0,3.57,1.6,3.57,3.57v30.6C309.84,49.19,308.24,50.79,306.27,50.79z"/>
<path class="st2" d="M348.97,50.79h-30.6c-1.97,0-3.57-1.6-3.57-3.57v-30.6c0-1.97,1.6-3.57,3.57-3.57h30.6
	c1.97,0,3.57,1.6,3.57,3.57v30.6C352.55,49.19,350.95,50.79,348.97,50.79z"/>
<path class="st2" d="M392.81,50.79h-30.6c-1.97,0-3.57-1.6-3.57-3.57v-30.6c0-1.97,1.6-3.57,3.57-3.57h30.6
	c1.97,0,3.57,1.6,3.57,3.57v30.6C396.39,49.19,394.79,50.79,392.81,50.79z"/>
<path class="st2" d="M436.72,50.79h-30.6c-1.97,0-3.57-1.6-3.57-3.57v-30.6c0-1.97,1.6-3.57,3.57-3.57h30.6
	c1.97,0,3.57,1.6,3.57,3.57v30.6C440.29,49.19,438.69,50.79,436.72,50.79z"/>
<path class="st2" d="M44.3,50.79H13.7c-1.97,0-3.57-1.6-3.57-3.57v-30.6c0-1.97,1.6-3.57,3.57-3.57h30.6c1.97,0,3.57,1.6,3.57,3.57
	v30.6C47.87,49.19,46.27,50.79,44.3,50.79z"/>
<path class="st2" d="M120.5,135.29H89.9c-1.97,0-3.57-1.6-3.57-3.57v-30.6c0-1.97,1.6-3.57,3.57-3.57h30.6
	c1.97,0,3.57,1.6,3.57,3.57v30.6C124.07,133.69,122.47,135.29,120.5,135.29z"/>
<path class="st2" d="M164.33,135.29h-30.6c-1.97,0-3.57-1.6-3.57-3.57v-30.6c0-1.97,1.6-3.57,3.57-3.57h30.6
	c1.97,0,3.57,1.6,3.57,3.57v30.6C167.91,133.69,166.31,135.29,164.33,135.29z"/>
<path class="st2" d="M208.24,135.29h-30.6c-1.97,0-3.57-1.6-3.57-3.57v-30.6c0-1.97,1.6-3.57,3.57-3.57h30.6
	c1.97,0,3.57,1.6,3.57,3.57v30.6C211.81,133.69,210.21,135.29,208.24,135.29z"/>
<path class="st2" d="M250.95,135.29h-30.6c-1.97,0-3.57-1.6-3.57-3.57v-30.6c0-1.97,1.6-3.57,3.57-3.57h30.6
	c1.97,0,3.57,1.6,3.57,3.57v30.6C254.52,133.69,252.92,135.29,250.95,135.29z"/>
<path class="st2" d="M294.78,135.29h-30.6c-1.97,0-3.57-1.6-3.57-3.57v-30.6c0-1.97,1.6-3.57,3.57-3.57h30.6
	c1.97,0,3.57,1.6,3.57,3.57v30.6C298.36,133.69,296.76,135.29,294.78,135.29z"/>
<path class="st2" d="M338.69,135.29h-30.6c-1.97,0-3.57-1.6-3.57-3.57v-30.6c0-1.97,1.6-3.57,3.57-3.57h30.6
	c1.97,0,3.57,1.6,3.57,3.57v30.6C342.26,133.69,340.66,135.29,338.69,135.29z"/>
<path class="st2" d="M403.24,93.57h-30.6c-1.97,0-3.57-1.6-3.57-3.57v-30.6c0-1.97,1.6-3.57,3.57-3.57h30.6
	c1.97,0,3.57,1.6,3.57,3.57v30.6C406.81,91.96,405.21,93.57,403.24,93.57z"/>
<path class="st1" d="M72.13,17.54L58.78,30.89c-0.31,0.31-0.09,0.83,0.34,0.83h6.78c0.27,0,0.49,0.22,0.49,0.49v13.73
	c0,0.27,0.22,0.49,0.49,0.49h11.15c0.27,0,0.49-0.22,0.49-0.49V32.3c0-0.27,0.22-0.49,0.49-0.49h6.67c0.43,0,0.65-0.52,0.35-0.83
	L72.83,17.54C72.64,17.35,72.33,17.34,72.13,17.54z"/>
<text transform="matrix(1 0 0 1 68.9462 35.489)" class="st1 st3 st4">W</text>
<text transform="matrix(1 0 0 1 59.6418 121.949)" class="st1 st3 st4">Z</text>
<path class="st1" d="M62.09,131.85l13.36-13.36c0.31-0.31,0.09-0.83-0.34-0.83h-6.78c-0.27,0-0.49-0.22-0.49-0.49v-13.73
	c0-0.27-0.22-0.49-0.49-0.49H56.2c-0.27,0-0.49,0.22-0.49,0.49v13.65c0,0.27-0.22,0.49-0.49,0.49h-6.67c-0.43,0-0.65,0.52-0.35,0.83
	l13.19,13.44C61.59,132.04,61.9,132.04,62.09,131.85z"/>
<path class="st1" d="M142.67,74.43l-13.36-13.36c-0.31-0.31-0.83-0.09-0.83,0.34v6.78c0,0.27-0.22,0.49-0.49,0.49h-13.73
	c-0.27,0-0.49,0.22-0.49,0.49v11.15c0,0.27,0.22,0.49,0.49,0.49h13.65c0.27,0,0.49,0.22,0.49,0.49v6.67c0,0.43,0.52,0.65,0.83,0.35
	l13.44-13.19C142.86,74.93,142.86,74.62,142.67,74.43z"/>
<path class="st1" d="M24.17,74.95l13.36,13.36c0.31,0.31,0.83,0.09,0.83-0.34v-6.78c0-0.27,0.22-0.49,0.49-0.49h13.73
	c0.27,0,0.49-0.22,0.49-0.49V69.06c0-0.27-0.22-0.49-0.49-0.49H38.94c-0.27,0-0.49-0.22-0.49-0.49v-6.67c0-0.43-0.52-0.65-0.83-0.35
	L24.18,74.26C23.98,74.45,23.98,74.76,24.17,74.95z"/>
<text transform="matrix(1 0 0 1 125.0629 78.3567)" class="st1 st3 st4">D</text>
<text transform="matrix(1 0 0 1 35.5953 77.9507)" class="st1 st3 st4">A</text>
<rect x="72.45" y="63.72" class="st1" width="21.95" height="21.95"/>
<text transform="matrix(1 0 0 1 81.2856 77.9508)" class="st1 st3 st4">S</text>
<text transform="matrix(1 0 0 1 113.7685 35.4892)" class="st1 st3 st4">E</text>
<text transform="matrix(1 0 0 1 158.0285 35.4891)" class="st1 st3 st4">R</text>
<text transform="matrix(1 0 0 1 299.7267 77.9504)" class="st1 st3 st4">J</text>
<text transform="matrix(1 0 0 1 342.2636 78.3566)" class="st1 st3 st4">K</text>
<polyline class="st1" points="287.62,88.57 315.04,88.57 315.04,60.82 308.22,67.63 "/>
<polyline class="st1" points="331.01,60.82 358.44,60.82 358.44,88.57 351.62,81.75 "/>
</svg>
